<svg width="45" height="45" viewBox="0 0 45 45" fill="none" xmlns="http://www.w3.org/2000/svg">
<path d="M29.1243 41.8988H15.0223C14.6576 41.8988 14.3079 41.7539 14.05 41.496C13.7921 41.2382 13.6473 40.8884 13.6473 40.5238V34.7414C13.6473 32.5067 14.535 30.3635 16.1152 28.7833C17.6954 27.2032 19.8386 26.3154 22.0733 26.3154C24.308 26.3154 26.4512 27.2032 28.0314 28.7833C29.6115 30.3635 30.4993 32.5067 30.4993 34.7414V40.5238C30.4993 40.8884 30.3544 41.2382 30.0965 41.496C29.8387 41.7539 29.4889 41.8988 29.1243 41.8988ZM16.3973 39.1488H27.7493V34.7414C27.7493 33.2361 27.1513 31.7923 26.0868 30.7279C25.0224 29.6634 23.5786 29.0654 22.0733 29.0654C20.5679 29.0654 19.1242 29.6634 18.0597 30.7279C16.9953 31.7923 16.3973 33.2361 16.3973 34.7414V39.1488Z" fill="#4ABB82"/>
<path d="M34.9066 41.8989H9.23991C7.90322 41.8974 6.6217 41.3658 5.67652 40.4206C4.73134 39.4754 4.1997 38.1939 4.19824 36.8572V21.7139C4.19824 21.3492 4.34311 20.9995 4.60097 20.7416C4.85883 20.4837 5.20857 20.3389 5.57324 20.3389C5.93791 20.3389 6.28765 20.4837 6.54551 20.7416C6.80338 20.9995 6.94824 21.3492 6.94824 21.7139V36.8572C6.94873 37.4648 7.19033 38.0475 7.61999 38.4771C8.04966 38.9068 8.63227 39.1484 9.23991 39.1489H34.9066C35.5142 39.1484 36.0968 38.9068 36.5265 38.4771C36.9562 38.0475 37.1978 37.4648 37.1982 36.8572V21.7139C37.1982 21.3492 37.3431 20.9995 37.601 20.7416C37.8588 20.4837 38.2086 20.3389 38.5732 20.3389C38.9379 20.3389 39.2877 20.4837 39.5455 20.7416C39.8034 20.9995 39.9482 21.3492 39.9482 21.7139V36.8572C39.9468 38.1939 39.4151 39.4754 38.47 40.4206C37.5248 41.3658 36.2433 41.8974 34.9066 41.8989Z" fill="#1D1D35"/>
<path d="M29.4066 23.5655C28.7196 23.5661 28.0398 23.4258 27.4092 23.1533C26.7785 22.8809 26.2104 22.4821 25.7399 21.9815C25.2692 22.4819 24.7011 22.8806 24.0705 23.1531C23.4399 23.4256 22.7602 23.5662 22.0733 23.5662C21.3863 23.5662 20.7066 23.4256 20.076 23.1531C19.4454 22.8806 18.8773 22.4819 18.4066 21.9815C17.9362 22.4815 17.3685 22.88 16.7383 23.1525C16.1082 23.425 15.4291 23.5658 14.7426 23.5661C14.056 23.5665 13.3767 23.4264 12.7463 23.1545C12.116 22.8827 11.5479 22.4847 11.0769 21.9852C10.9541 22.1154 10.8203 22.2419 10.6828 22.361C10.1226 22.8363 9.46601 23.1844 8.75828 23.3812C8.05055 23.5781 7.30853 23.6191 6.58343 23.5014C5.38557 23.2761 4.30566 22.6353 3.53394 21.6919C2.76223 20.7485 2.34825 19.5629 2.36493 18.3442V14.8572C2.36551 14.6439 2.41572 14.4336 2.51159 14.243L6.99593 5.27071C7.41177 4.43073 8.0548 3.72417 8.852 3.23126C9.64921 2.73836 10.5687 2.47885 11.5059 2.48221H32.6406C33.5777 2.47868 34.497 2.73791 35.2942 3.23048C36.0914 3.72306 36.7345 4.42924 37.1506 5.26888L41.6368 14.243C41.732 14.4338 41.7816 14.644 41.7816 14.8572V18.3442C41.7986 19.5626 41.385 20.7478 40.6136 21.691C39.8421 22.6341 38.7625 23.2746 37.5649 23.4995C36.8397 23.6188 36.0971 23.5787 35.3889 23.3821C34.6807 23.1855 34.0238 22.8371 33.4638 22.361C33.3264 22.2422 33.1948 22.1168 33.0696 21.9852C32.599 22.4844 32.0313 22.8821 31.4014 23.1538C30.7715 23.4256 30.0926 23.5657 29.4066 23.5655ZM5.11493 15.1817V18.3442C5.09453 18.9092 5.27368 19.4634 5.62096 19.9096C5.96825 20.3558 6.4615 20.6655 7.01426 20.7844C7.34626 20.8404 7.68647 20.8235 8.01128 20.7348C8.33609 20.6462 8.63772 20.4879 8.89526 20.271C9.14768 20.0554 9.35022 19.7874 9.48887 19.4858C9.62752 19.1841 9.69896 18.8559 9.69826 18.5239C9.69826 18.1592 9.84312 17.8095 10.101 17.5516C10.3589 17.2937 10.7086 17.1489 11.0733 17.1489C11.4379 17.1489 11.7877 17.2937 12.0455 17.5516C12.3034 17.8095 12.4483 18.1592 12.4483 18.5239C12.4483 19.1317 12.6897 19.7146 13.1195 20.1443C13.5492 20.5741 14.1321 20.8155 14.7399 20.8155C15.3477 20.8155 15.9306 20.5741 16.3604 20.1443C16.7902 19.7146 17.0316 19.1317 17.0316 18.5239C17.0316 18.1592 17.1765 17.8095 17.4343 17.5516C17.6922 17.2937 18.0419 17.1489 18.4066 17.1489C18.7713 17.1489 19.121 17.2937 19.3789 17.5516C19.6367 17.8095 19.7816 18.1592 19.7816 18.5239C19.7816 19.1317 20.023 19.7146 20.4528 20.1443C20.8826 20.5741 21.4655 20.8155 22.0733 20.8155C22.681 20.8155 23.2639 20.5741 23.6937 20.1443C24.1235 19.7146 24.3649 19.1317 24.3649 18.5239C24.3649 18.1592 24.5098 17.8095 24.7677 17.5516C25.0255 17.2937 25.3753 17.1489 25.7399 17.1489C26.1046 17.1489 26.4543 17.2937 26.7122 17.5516C26.9701 17.8095 27.1149 18.1592 27.1149 18.5239C27.1149 19.1317 27.3564 19.7146 27.7861 20.1443C28.2159 20.5741 28.7988 20.8155 29.4066 20.8155C30.0144 20.8155 30.5973 20.5741 31.027 20.1443C31.4568 19.7146 31.6983 19.1317 31.6983 18.5239C31.6983 18.1592 31.8431 17.8095 32.101 17.5516C32.3589 17.2937 32.7086 17.1489 33.0733 17.1489C33.4379 17.1489 33.7877 17.2937 34.0455 17.5516C34.3034 17.8095 34.4483 18.1592 34.4483 18.5239C34.4475 18.8585 34.5201 19.1892 34.6609 19.4927C34.8018 19.7962 35.0076 20.0651 35.2636 20.2805C35.5197 20.4959 35.82 20.6524 36.1431 20.7392C36.4663 20.8259 36.8046 20.8407 37.1341 20.7825C37.6864 20.6636 38.1792 20.3542 38.5261 19.9083C38.873 19.4625 39.052 18.9088 39.0316 18.3442V15.1817L34.6903 6.49721C34.5009 6.11596 34.2085 5.79537 33.8462 5.57179C33.4839 5.34821 33.0663 5.23058 32.6406 5.23221H11.5059C11.0802 5.23058 10.6626 5.34821 10.3003 5.57179C9.93804 5.79537 9.64565 6.11596 9.45626 6.49721L5.11493 15.1817Z" fill="#1D1D35"/>
</svg>
