<svg width="24" height="25" viewBox="0 0 24 25" fill="none" xmlns="http://www.w3.org/2000/svg">
<path d="M16.5 6.44141H13.5C12.9477 6.44141 12.5 6.88913 12.5 7.44141V10.4414H16.5C16.6137 10.4389 16.7216 10.4918 16.7892 10.5833C16.8568 10.6748 16.8758 10.7934 16.84 10.9014L16.1 13.1014C16.0318 13.3033 15.8431 13.4398 15.63 13.4414H12.5V20.9414C12.5 21.2175 12.2761 21.4414 12 21.4414H9.5C9.22386 21.4414 9 21.2175 9 20.9414V13.4414H7.5C7.22386 13.4414 7 13.2175 7 12.9414V10.9414C7 10.6653 7.22386 10.4414 7.5 10.4414H9V7.44141C9 5.23227 10.7909 3.44141 13 3.44141H16.5C16.7761 3.44141 17 3.66527 17 3.94141V5.94141C17 6.21755 16.7761 6.44141 16.5 6.44141Z" fill="black"/>
</svg>
