<svg width="24" height="25" viewBox="0 0 24 25" fill="none" xmlns="http://www.w3.org/2000/svg">
<path fill-rule="evenodd" clip-rule="evenodd" d="M16 3.44141H8C5.23858 3.44141 3 5.67999 3 8.44141V16.4414C3 19.2028 5.23858 21.4414 8 21.4414H16C18.7614 21.4414 21 19.2028 21 16.4414V8.44141C21 5.67999 18.7614 3.44141 16 3.44141ZM19.25 16.4414C19.2445 18.234 17.7926 19.6859 16 19.6914H8C6.20735 19.6859 4.75549 18.234 4.75 16.4414V8.44141C4.75549 6.64876 6.20735 5.1969 8 5.19141H16C17.7926 5.1969 19.2445 6.64876 19.25 8.44141V16.4414ZM16.75 8.69141C17.3023 8.69141 17.75 8.24369 17.75 7.69141C17.75 7.13913 17.3023 6.69141 16.75 6.69141C16.1977 6.69141 15.75 7.13913 15.75 7.69141C15.75 8.24369 16.1977 8.69141 16.75 8.69141ZM12 7.94141C9.51472 7.94141 7.5 9.95613 7.5 12.4414C7.5 14.9267 9.51472 16.9414 12 16.9414C14.4853 16.9414 16.5 14.9267 16.5 12.4414C16.5027 11.2471 16.0294 10.101 15.1849 9.25649C14.3404 8.412 13.1943 7.93875 12 7.94141ZM9.25 12.4414C9.25 13.9602 10.4812 15.1914 12 15.1914C13.5188 15.1914 14.75 13.9602 14.75 12.4414C14.75 10.9226 13.5188 9.69141 12 9.69141C10.4812 9.69141 9.25 10.9226 9.25 12.4414Z" fill="black"/>
</svg>
