<svg width="24" height="25" viewBox="0 0 24 25" fill="none" xmlns="http://www.w3.org/2000/svg">
<path fill-rule="evenodd" clip-rule="evenodd" d="M5 3.44141H19C20.1046 3.44141 21 4.33684 21 5.44141V19.4414C21 20.546 20.1046 21.4414 19 21.4414H5C3.89543 21.4414 3 20.546 3 19.4414V5.44141C3 4.33684 3.89543 3.44141 5 3.44141ZM8 18.4414C8.27614 18.4414 8.5 18.2175 8.5 17.9414V10.9414C8.5 10.6653 8.27614 10.4414 8 10.4414H6.5C6.22386 10.4414 6 10.6653 6 10.9414V17.9414C6 18.2175 6.22386 18.4414 6.5 18.4414H8ZM7.25 9.44141C6.42157 9.44141 5.75 8.76984 5.75 7.94141C5.75 7.11298 6.42157 6.44141 7.25 6.44141C8.07843 6.44141 8.75 7.11298 8.75 7.94141C8.75 8.76984 8.07843 9.44141 7.25 9.44141ZM17.5 18.4414C17.7761 18.4414 18 18.2175 18 17.9414V13.3414C18.0325 11.7522 16.8576 10.3959 15.28 10.2014C14.177 10.1007 13.1083 10.6158 12.5 11.5414V10.9414C12.5 10.6653 12.2761 10.4414 12 10.4414H10.5C10.2239 10.4414 10 10.6653 10 10.9414V17.9414C10 18.2175 10.2239 18.4414 10.5 18.4414H12C12.2761 18.4414 12.5 18.2175 12.5 17.9414V14.1914C12.5 13.363 13.1716 12.6914 14 12.6914C14.8284 12.6914 15.5 13.363 15.5 14.1914V17.9414C15.5 18.2175 15.7239 18.4414 16 18.4414H17.5Z" fill="black"/>
</svg>
