<svg width="25" height="25" viewBox="0 0 25 25" fill="none" xmlns="http://www.w3.org/2000/svg">
<path d="M8.43466 22.0899C7.98691 22.093 7.54442 21.9933 7.14117 21.7987C6.73792 21.6041 6.38465 21.3196 6.10848 20.9671C5.83231 20.6147 5.6406 20.2036 5.54806 19.7655C5.45552 19.3274 5.46462 18.874 5.57466 18.4399L6.83466 13.4399C6.8619 13.3081 6.91546 13.1832 6.99214 13.0726C7.06882 12.962 7.16703 12.868 7.2809 12.7963C7.39477 12.7245 7.52194 12.6765 7.65481 12.6551C7.78768 12.6337 7.9235 12.6393 8.05414 12.6716C8.18479 12.7039 8.30756 12.7623 8.41511 12.8432C8.52266 12.9241 8.61277 13.0259 8.68005 13.1424C8.74733 13.259 8.79038 13.3879 8.80664 13.5215C8.8229 13.6551 8.81202 13.7906 8.77466 13.9199L7.51466 18.9199C7.49053 19.0575 7.49547 19.1985 7.52916 19.334C7.56285 19.4695 7.62454 19.5965 7.71026 19.7067C7.79599 19.8169 7.90384 19.9079 8.02688 19.9739C8.14992 20.04 8.28543 20.0795 8.42466 20.0899C8.63675 20.0913 8.84307 20.0209 9.01009 19.8902C9.17712 19.7595 9.29503 19.5761 9.34466 19.3699L10.7147 13.8999C10.7419 13.7681 10.7955 13.6432 10.8721 13.5326C10.9488 13.422 11.047 13.328 11.1609 13.2563C11.2748 13.1845 11.4019 13.1365 11.5348 13.1151C11.6677 13.0937 11.8035 13.0993 11.9341 13.1316C12.0648 13.1639 12.1876 13.2223 12.2951 13.3032C12.4027 13.3841 12.4928 13.4859 12.5601 13.6024C12.6273 13.719 12.6704 13.8479 12.6866 13.9815C12.7029 14.1151 12.692 14.2506 12.6547 14.3799L11.2847 19.8599C11.1171 20.4912 10.7481 21.0506 10.2338 21.453C9.71937 21.8555 9.0877 22.0791 8.43466 22.0899Z" fill="#000"/>
<path d="M10.0347 14.6999H8.35468C7.08949 14.6428 5.89505 14.1 5.01993 13.1845C4.14481 12.269 3.65643 11.0513 3.65643 9.78487C3.65643 8.5184 4.14481 7.3007 5.01993 6.38521C5.89505 5.46972 7.08949 4.92696 8.35468 4.86987H10.0347C10.2999 4.86987 10.5542 4.97523 10.7418 5.16277C10.9293 5.3503 11.0347 5.60466 11.0347 5.86987V13.6999C11.0347 13.9651 10.9293 14.2194 10.7418 14.407C10.5542 14.5945 10.2999 14.6999 10.0347 14.6999ZM8.35468 6.86987C7.61109 6.91344 6.91226 7.23954 6.4012 7.78142C5.89014 8.3233 5.60549 9.04001 5.60549 9.78487C5.60549 10.5297 5.89014 11.2464 6.4012 11.7883C6.91226 12.3302 7.61109 12.6563 8.35468 12.6999H9.03468V6.86987H8.35468Z" fill="#000"/>
<path d="M18.9447 17.4799C18.5404 17.478 18.1401 17.4 17.7647 17.2499C16.9647 16.9299 16.1247 16.6199 15.2547 16.3199C13.4647 15.6899 11.6047 15.1399 9.7447 14.6699C9.52468 14.6132 9.33053 14.4833 9.1942 14.3015C9.05788 14.1198 8.98752 13.897 8.9947 13.6699V5.86991C8.98752 5.64282 9.05788 5.42005 9.1942 5.23829C9.33053 5.05652 9.52468 4.9266 9.7447 4.86991C11.5947 4.39991 13.4547 3.86991 15.2547 3.21991C16.1247 2.91991 16.9647 2.59991 17.7647 2.28991C18.2539 2.09793 18.7825 2.02821 19.3047 2.08678C19.8269 2.14535 20.327 2.33045 20.7615 2.62602C21.196 2.92159 21.5518 3.3187 21.798 3.78292C22.0443 4.24713 22.1736 4.76442 22.1747 5.28991V14.1999C22.1738 14.7284 22.0439 15.2487 21.7965 15.7157C21.5491 16.1827 21.1915 16.5823 20.7547 16.8799C20.2264 17.2592 19.595 17.4685 18.9447 17.4799ZM10.9947 12.9199C12.6547 13.3599 14.3047 13.8699 15.9147 14.4299C16.8047 14.7399 17.6747 15.0599 18.5047 15.4299C18.6886 15.5061 18.8888 15.5342 19.0866 15.5115C19.2843 15.4887 19.473 15.4159 19.6347 15.2999C19.7997 15.1902 19.9353 15.0416 20.0294 14.8673C20.1236 14.6929 20.1735 14.4981 20.1747 14.2999V5.32991C20.1709 5.13225 20.1199 4.93836 20.026 4.7644C19.9321 4.59045 19.7979 4.44148 19.6347 4.32991C19.4709 4.2181 19.282 4.14862 19.0848 4.12768C18.8876 4.10674 18.6883 4.13499 18.5047 4.20991C17.6747 4.53991 16.8047 4.85991 15.9147 5.20991C14.2947 5.76991 12.6447 6.27991 10.9947 6.70991V12.9199Z" fill="#000"/>
</svg>
