<svg width="25" height="25" viewBox="0 0 25 25" fill="none" xmlns="http://www.w3.org/2000/svg">
<g clip-path="url(#clip0_2_15075)">
<path d="M20.0086 12.6853L12.5086 20.1133L5.0086 12.6853C4.51391 12.2039 4.12424 11.6253 3.86415 10.9859C3.60406 10.3465 3.47916 9.66023 3.49734 8.97021C3.51552 8.28019 3.67636 7.60141 3.96976 6.97661C4.26315 6.35181 4.68274 5.79453 5.20209 5.33985C5.72144 4.88518 6.32931 4.54296 6.98741 4.33476C7.64552 4.12655 8.33961 4.05686 9.02597 4.13008C9.71233 4.20329 10.3761 4.41783 10.9755 4.76018C11.5749 5.10253 12.0969 5.56528 12.5086 6.11927C12.9221 5.5693 13.4447 5.1106 14.0437 4.77188C14.6427 4.43316 15.3051 4.22172 15.9895 4.15079C16.674 4.07987 17.3657 4.15097 18.0214 4.35967C18.6771 4.56836 19.2826 4.91015 19.8002 5.36364C20.3177 5.81713 20.736 6.37256 21.029 6.99517C21.322 7.61778 21.4833 8.29416 21.5029 8.98198C21.5225 9.66981 21.3999 10.3543 21.1427 10.9925C20.8856 11.6308 20.4995 12.2091 20.0086 12.6913" stroke="#000" stroke-width="1.5" stroke-linecap="round" stroke-linejoin="round"/>
</g>
<defs>
<clipPath id="clip0_2_15075">
<rect width="24" height="24" fill="white" transform="translate(0.508789 0.113281)"/>
</clipPath>
</defs>
</svg>
