<svg width="25" height="25" viewBox="0 0 25 25" fill="none" xmlns="http://www.w3.org/2000/svg">
<g clip-path="url(#clip0_2_15080)">
<path d="M9.50879 11.1133C9.50879 11.9089 9.82486 12.672 10.3875 13.2346C10.9501 13.7972 11.7131 14.1133 12.5088 14.1133C13.3044 14.1133 14.0675 13.7972 14.6301 13.2346C15.1927 12.672 15.5088 11.9089 15.5088 11.1133C15.5088 10.3176 15.1927 9.55457 14.6301 8.99196C14.0675 8.42935 13.3044 8.11328 12.5088 8.11328C11.7131 8.11328 10.9501 8.42935 10.3875 8.99196C9.82486 9.55457 9.50879 10.3176 9.50879 11.1133Z" stroke="#000" stroke-width="1.5" stroke-linecap="round" stroke-linejoin="round"/>
<path d="M18.1658 16.7703L13.9228 21.0133C13.5478 21.3879 13.0394 21.5984 12.5093 21.5984C11.9792 21.5984 11.4708 21.3879 11.0958 21.0133L6.85179 16.7703C5.73301 15.6514 4.97113 14.226 4.66248 12.6741C4.35383 11.1223 4.51228 9.51379 5.1178 8.05201C5.72331 6.59022 6.74869 5.34082 8.06427 4.46179C9.37986 3.58275 10.9266 3.11357 12.5088 3.11357C14.091 3.11357 15.6377 3.58275 16.9533 4.46179C18.2689 5.34082 19.2943 6.59022 19.8998 8.05201C20.5053 9.51379 20.6638 11.1223 20.3551 12.6741C20.0465 14.226 19.2846 15.6514 18.1658 16.7703Z" stroke="#000" stroke-width="1.5" stroke-linecap="round" stroke-linejoin="round"/>
</g>
<defs>
<clipPath id="clip0_2_15080">
<rect width="24" height="24" fill="white" transform="translate(0.508789 0.113281)"/>
</clipPath>
</defs>
</svg>
