<svg width="25" height="25" viewBox="0 0 25 25" fill="none" xmlns="http://www.w3.org/2000/svg">
<g clip-path="url(#clip0_2_15093)">
<path d="M15.5088 5.11328V7.11328" stroke="#000" stroke-width="1.5" stroke-linecap="round" stroke-linejoin="round"/>
<path d="M15.5088 11.1133V13.1133" stroke="#000" stroke-width="1.5" stroke-linecap="round" stroke-linejoin="round"/>
<path d="M15.5088 17.1133V19.1133" stroke="#000" stroke-width="1.5" stroke-linecap="round" stroke-linejoin="round"/>
<path d="M5.50879 5.11328H19.5088C20.0392 5.11328 20.5479 5.32399 20.923 5.69907C21.2981 6.07414 21.5088 6.58285 21.5088 7.11328V10.1133C20.9784 10.1133 20.4696 10.324 20.0946 10.6991C19.7195 11.0741 19.5088 11.5828 19.5088 12.1133C19.5088 12.6437 19.7195 13.1524 20.0946 13.5275C20.4696 13.9026 20.9784 14.1133 21.5088 14.1133V17.1133C21.5088 17.6437 21.2981 18.1524 20.923 18.5275C20.5479 18.9026 20.0392 19.1133 19.5088 19.1133H5.50879C4.97836 19.1133 4.46965 18.9026 4.09458 18.5275C3.7195 18.1524 3.50879 17.6437 3.50879 17.1133V14.1133C4.03922 14.1133 4.54793 13.9026 4.923 13.5275C5.29808 13.1524 5.50879 12.6437 5.50879 12.1133C5.50879 11.5828 5.29808 11.0741 4.923 10.6991C4.54793 10.324 4.03922 10.1133 3.50879 10.1133V7.11328C3.50879 6.58285 3.7195 6.07414 4.09458 5.69907C4.46965 5.32399 4.97836 5.11328 5.50879 5.11328Z" stroke="#000" stroke-width="1.5" stroke-linecap="round" stroke-linejoin="round"/>
</g>
<defs>
<clipPath id="clip0_2_15093">
<rect width="24" height="24" fill="white" transform="translate(0.508789 0.113281)"/>
</clipPath>
</defs>
</svg>
