<svg width="25" height="25" viewBox="0 0 25 25" fill="none" xmlns="http://www.w3.org/2000/svg">
<g clip-path="url(#clip0_2_15086)">
<path d="M3.50879 12.1133C3.50879 13.2952 3.74158 14.4655 4.19387 15.5574C4.64617 16.6494 5.3091 17.6415 6.14483 18.4772C6.98056 19.313 7.97271 19.9759 9.06464 20.4282C10.1566 20.8805 11.3269 21.1133 12.5088 21.1133C13.6907 21.1133 14.861 20.8805 15.9529 20.4282C17.0449 19.9759 18.037 19.313 18.8727 18.4772C19.7085 17.6415 20.3714 16.6494 20.8237 15.5574C21.276 14.4655 21.5088 13.2952 21.5088 12.1133C21.5088 10.9314 21.276 9.76106 20.8237 8.66913C20.3714 7.5772 19.7085 6.58505 18.8727 5.74932C18.037 4.91359 17.0449 4.25066 15.9529 3.79837C14.861 3.34607 13.6907 3.11328 12.5088 3.11328C11.3269 3.11328 10.1566 3.34607 9.06464 3.79837C7.97271 4.25066 6.98056 4.91359 6.14483 5.74932C5.3091 6.58505 4.64617 7.5772 4.19387 8.66913C3.74158 9.76106 3.50879 10.9314 3.50879 12.1133Z" stroke="#000" stroke-width="1.5" stroke-linecap="round" stroke-linejoin="round"/>
<path d="M9.50879 10.1133C9.50879 10.9089 9.82486 11.672 10.3875 12.2346C10.9501 12.7972 11.7131 13.1133 12.5088 13.1133C13.3044 13.1133 14.0675 12.7972 14.6301 12.2346C15.1927 11.672 15.5088 10.9089 15.5088 10.1133C15.5088 9.31763 15.1927 8.55457 14.6301 7.99196C14.0675 7.42935 13.3044 7.11328 12.5088 7.11328C11.7131 7.11328 10.9501 7.42935 10.3875 7.99196C9.82486 8.55457 9.50879 9.31763 9.50879 10.1133Z" stroke="#000" stroke-width="1.5" stroke-linecap="round" stroke-linejoin="round"/>
<path d="M6.67676 18.9623C6.92427 18.1385 7.43073 17.4165 8.121 16.9033C8.81128 16.3901 9.6486 16.113 10.5088 16.1133H14.5088C15.37 16.113 16.2084 16.3907 16.8991 16.9051C17.5899 17.4195 18.0962 18.1431 18.3428 18.9683" stroke="#000" stroke-width="1.5" stroke-linecap="round" stroke-linejoin="round"/>
</g>
<defs>
<clipPath id="clip0_2_15086">
<rect width="24" height="24" fill="white" transform="translate(0.508789 0.113281)"/>
</clipPath>
</defs>
</svg>
